<mxfile host="app.diagrams.net" modified="2020-10-12T19:59:08.177Z" agent="5.0 (Windows NT 10.0; Win64; x64) AppleWebKit/537.36 (KHTML, like Gecko) Chrome/85.0.4183.121 Safari/537.36" etag="WT11cbkv2nXUIlo9FiDQ" version="13.7.7" type="github">
  <diagram id="LvWzv3NKM2iZNVY9Iw3F" name="Page-1">
    <mxGraphModel dx="1447" dy="803" grid="1" gridSize="10" guides="1" tooltips="1" connect="1" arrows="1" fold="1" page="1" pageScale="1" pageWidth="1169" pageHeight="827" math="0" shadow="0">
      <root>
        <mxCell id="0" />
        <mxCell id="1" parent="0" />
        <mxCell id="GgN632OkFIJZMTPs0i34-2" value="&lt;font style=&quot;font-size: 35px&quot;&gt;Home do site&lt;/font&gt;" style="rounded=0;whiteSpace=wrap;html=1;" vertex="1" parent="1">
          <mxGeometry x="70" y="210" width="150" height="110" as="geometry" />
        </mxCell>
        <mxCell id="GgN632OkFIJZMTPs0i34-4" value="&lt;font style=&quot;font-size: 35px&quot;&gt;Meu perfil&lt;/font&gt;" style="rounded=0;whiteSpace=wrap;html=1;" vertex="1" parent="1">
          <mxGeometry x="550" y="230" width="200" height="80" as="geometry" />
        </mxCell>
        <mxCell id="GgN632OkFIJZMTPs0i34-5" value="&lt;font style=&quot;font-size: 35px&quot;&gt;Cadastro&lt;/font&gt;" style="rounded=0;whiteSpace=wrap;html=1;" vertex="1" parent="1">
          <mxGeometry x="285" y="60" width="210" height="80" as="geometry" />
        </mxCell>
        <mxCell id="GgN632OkFIJZMTPs0i34-6" value="&lt;font style=&quot;font-size: 35px&quot;&gt;Login&lt;/font&gt;" style="rounded=0;whiteSpace=wrap;html=1;" vertex="1" parent="1">
          <mxGeometry x="300" y="220" width="180" height="90" as="geometry" />
        </mxCell>
        <mxCell id="GgN632OkFIJZMTPs0i34-7" value="&lt;font style=&quot;font-size: 35px&quot;&gt;Tela de reserva&lt;/font&gt;" style="rounded=0;whiteSpace=wrap;html=1;" vertex="1" parent="1">
          <mxGeometry x="280" y="373.5" width="185" height="86.5" as="geometry" />
        </mxCell>
        <mxCell id="GgN632OkFIJZMTPs0i34-8" value="&lt;font style=&quot;font-size: 35px&quot;&gt;Pagamento&lt;/font&gt;" style="rounded=0;whiteSpace=wrap;html=1;" vertex="1" parent="1">
          <mxGeometry x="520" y="380" width="200" height="83" as="geometry" />
        </mxCell>
        <mxCell id="GgN632OkFIJZMTPs0i34-16" value="" style="endArrow=classic;html=1;entryX=0;entryY=0.75;entryDx=0;entryDy=0;" edge="1" parent="1" target="GgN632OkFIJZMTPs0i34-6">
          <mxGeometry width="50" height="50" relative="1" as="geometry">
            <mxPoint x="220" y="288" as="sourcePoint" />
            <mxPoint x="300" y="250" as="targetPoint" />
          </mxGeometry>
        </mxCell>
        <mxCell id="GgN632OkFIJZMTPs0i34-20" value="" style="endArrow=classic;html=1;exitX=0;exitY=0.25;exitDx=0;exitDy=0;" edge="1" parent="1" source="GgN632OkFIJZMTPs0i34-6">
          <mxGeometry width="50" height="50" relative="1" as="geometry">
            <mxPoint x="240" y="280" as="sourcePoint" />
            <mxPoint x="220" y="243" as="targetPoint" />
          </mxGeometry>
        </mxCell>
        <mxCell id="GgN632OkFIJZMTPs0i34-22" value="&lt;font style=&quot;font-size: 35px&quot;&gt;RelatÃ³rio da reserva feita&lt;/font&gt;" style="rounded=0;whiteSpace=wrap;html=1;" vertex="1" parent="1">
          <mxGeometry x="810" y="373.5" width="341" height="96" as="geometry" />
        </mxCell>
        <mxCell id="GgN632OkFIJZMTPs0i34-36" value="" style="endArrow=classic;html=1;entryX=0.296;entryY=1.013;entryDx=0;entryDy=0;entryPerimeter=0;" edge="1" parent="1" target="GgN632OkFIJZMTPs0i34-5">
          <mxGeometry width="50" height="50" relative="1" as="geometry">
            <mxPoint x="347" y="220" as="sourcePoint" />
            <mxPoint x="410" y="160" as="targetPoint" />
          </mxGeometry>
        </mxCell>
        <mxCell id="GgN632OkFIJZMTPs0i34-38" value="" style="endArrow=classic;html=1;exitX=1;exitY=0.25;exitDx=0;exitDy=0;entryX=0.007;entryY=0.146;entryDx=0;entryDy=0;entryPerimeter=0;" edge="1" parent="1" source="GgN632OkFIJZMTPs0i34-6" target="GgN632OkFIJZMTPs0i34-4">
          <mxGeometry width="50" height="50" relative="1" as="geometry">
            <mxPoint x="520" y="280" as="sourcePoint" />
            <mxPoint x="570" y="230" as="targetPoint" />
          </mxGeometry>
        </mxCell>
        <mxCell id="GgN632OkFIJZMTPs0i34-39" value="" style="endArrow=classic;html=1;entryX=1;entryY=0.75;entryDx=0;entryDy=0;" edge="1" parent="1" target="GgN632OkFIJZMTPs0i34-6">
          <mxGeometry width="50" height="50" relative="1" as="geometry">
            <mxPoint x="550" y="288" as="sourcePoint" />
            <mxPoint x="570.7106781186548" y="265" as="targetPoint" />
          </mxGeometry>
        </mxCell>
        <mxCell id="GgN632OkFIJZMTPs0i34-41" value="" style="endArrow=classic;html=1;entryX=0.75;entryY=0;entryDx=0;entryDy=0;" edge="1" parent="1" target="GgN632OkFIJZMTPs0i34-6">
          <mxGeometry width="50" height="50" relative="1" as="geometry">
            <mxPoint x="435" y="142" as="sourcePoint" />
            <mxPoint x="460" y="160" as="targetPoint" />
          </mxGeometry>
        </mxCell>
        <mxCell id="GgN632OkFIJZMTPs0i34-42" value="" style="endArrow=classic;html=1;exitX=-0.008;exitY=0.636;exitDx=0;exitDy=0;exitPerimeter=0;" edge="1" parent="1" source="GgN632OkFIJZMTPs0i34-22">
          <mxGeometry width="50" height="50" relative="1" as="geometry">
            <mxPoint x="730" y="480" as="sourcePoint" />
            <mxPoint x="720" y="435" as="targetPoint" />
          </mxGeometry>
        </mxCell>
        <mxCell id="GgN632OkFIJZMTPs0i34-43" value="" style="endArrow=classic;html=1;exitX=0.5;exitY=1;exitDx=0;exitDy=0;" edge="1" parent="1" source="GgN632OkFIJZMTPs0i34-6">
          <mxGeometry width="50" height="50" relative="1" as="geometry">
            <mxPoint x="350" y="370" as="sourcePoint" />
            <mxPoint x="390" y="374" as="targetPoint" />
          </mxGeometry>
        </mxCell>
        <mxCell id="GgN632OkFIJZMTPs0i34-44" value="" style="endArrow=classic;html=1;exitX=1;exitY=0.25;exitDx=0;exitDy=0;" edge="1" parent="1" source="GgN632OkFIJZMTPs0i34-8">
          <mxGeometry width="50" height="50" relative="1" as="geometry">
            <mxPoint x="740" y="430" as="sourcePoint" />
            <mxPoint x="810" y="402" as="targetPoint" />
          </mxGeometry>
        </mxCell>
        <mxCell id="GgN632OkFIJZMTPs0i34-47" value="" style="endArrow=classic;html=1;entryX=0;entryY=0.25;entryDx=0;entryDy=0;" edge="1" parent="1" target="GgN632OkFIJZMTPs0i34-8">
          <mxGeometry width="50" height="50" relative="1" as="geometry">
            <mxPoint x="465" y="401" as="sourcePoint" />
            <mxPoint x="520" y="380" as="targetPoint" />
          </mxGeometry>
        </mxCell>
        <mxCell id="GgN632OkFIJZMTPs0i34-48" value="" style="endArrow=classic;html=1;entryX=1;entryY=0.75;entryDx=0;entryDy=0;" edge="1" parent="1" target="GgN632OkFIJZMTPs0i34-7">
          <mxGeometry width="50" height="50" relative="1" as="geometry">
            <mxPoint x="520" y="438" as="sourcePoint" />
            <mxPoint x="520" y="420" as="targetPoint" />
          </mxGeometry>
        </mxCell>
      </root>
    </mxGraphModel>
  </diagram>
</mxfile>
